<?xml version="1.0" encoding="utf-8"?>
<!-- Generator: Adobe Illustrator 16.0.4, SVG Export Plug-In . SVG Version: 6.00 Build 0)  -->
<!DOCTYPE svg PUBLIC "-//W3C//DTD SVG 1.1//EN" "http://www.w3.org/Graphics/SVG/1.1/DTD/svg11.dtd">
<svg version="1.1" id="Layer_1" xmlns="http://www.w3.org/2000/svg" xmlns:xlink="http://www.w3.org/1999/xlink" x="0px" y="0px"
	 width="246.767px" height="90.006px" viewBox="0 0 246.767 90.006" enable-background="new 0 0 246.767 90.006"
	 xml:space="preserve">
<g>
	<path d="M53.136,64.048c0,13.708-9.697,25.958-29.231,25.958c-8.866,0-14.546,0-18.148,0c-3.879,0-5.264,0-5.264,0v-5.542V5.134
		v-5.542c0,0,0.831,0,5.264,0c3.048,0,8.035,0,15.655,0c18.425,0,26.184,10.937,26.184,21.875c0,15.166-13.3,19.249-13.3,19.249
		S53.136,43.487,53.136,64.048z M6.983,7.425v30.833h14.566c4.71,0,18.742-0.312,18.742-16.5c0-7.875-3.503-14.333-18.604-14.333
		H6.983z M45.417,63.757c0-18.375-18.188-18.958-23.868-18.958l-1.247,1l-0.139-1l-13.181,1v37.374h17.06
		C41.222,83.173,45.417,73.673,45.417,63.757z"/>
	<path d="M110.49,90.006h-8.55c0,0-5.265-8.021-5.265-21.874c0-20.854-15.417-19.875-18.88-19.875H65.327v41.749h-7.441V-0.408
		c0,0,14.922,0,22.819,0c19.533,0,25.748,14.583,25.748,23.333c0,6.708-4.275,16.916-14.526,21.291
		c0.832,0.438,1.663,0.875,2.355,1.458c3.048,2.333,5.403,5.25,7.066,8.604c1.801,3.938,2.771,8.604,2.771,13.854
		C104.118,81.985,110.49,89.86,110.49,90.006z M65.327,39.424h15.239c6.927,0,11.241-1.188,14.566-5.271
		c3.602-4.521,3.879-9.771,3.879-11.229c0-1.458-0.277-6.708-3.741-11.229c-3.325-4.083-7.639-4.271-14.566-4.271H65.327V39.424z"/>
	<path d="M117.14,90.006V-0.408h7.441v90.414H117.14z"/>
	<path d="M189.709,83.193v6.812H135.72V-0.408h51.357v6.812H143.3v32.582h41.146v6.812H143.3v37.394H189.709z"/>
	<path d="M195.409,90.006V-0.408h51.357v6.812H202.99v32.582h41.145v6.812H202.99v44.207H195.409z"/>
</g>
</svg>
