<?xml version="1.0" encoding="utf-8"?>
<!-- Generator: Adobe Illustrator 16.0.4, SVG Export Plug-In . SVG Version: 6.00 Build 0)  -->
<!DOCTYPE svg PUBLIC "-//W3C//DTD SVG 1.1//EN" "http://www.w3.org/Graphics/SVG/1.1/DTD/svg11.dtd">
<svg version="1.1" id="Layer_1" xmlns="http://www.w3.org/2000/svg" xmlns:xlink="http://www.w3.org/1999/xlink" x="0px" y="0px"
	 width="1024px" height="1024px" viewBox="0 0 1024 1024" enable-background="new 0 0 1024 1024" xml:space="preserve">
<g>
	<path d="M250.503,583.405c0,50.85-35.973,96.29-108.433,96.29c-32.889,0-53.96,0-67.321,0c-14.389,0-19.528,0-19.528,0v-20.556
		V364.861v-20.556c0,0,3.083,0,19.528,0c11.306,0,29.806,0,58.071,0c68.348,0,97.128,40.571,97.128,81.144
		c0,56.258-49.336,71.404-49.336,71.404S250.503,507.132,250.503,583.405z M79.301,373.362v114.373h54.032
		c17.474,0,69.524-1.158,69.524-61.205c0-29.212-12.994-53.168-69.01-53.168H79.301z M221.871,582.324
		c0-68.16-67.467-70.322-88.538-70.322l-4.624,3.709l-0.514-3.709l-48.894,3.709v138.637h63.283
		C206.31,654.348,221.871,619.107,221.871,582.324z"/>
	<path d="M463.26,679.695h-31.715c0,0-19.529-29.752-19.529-81.142c0-77.356-57.189-73.724-70.037-73.724h-46.251v154.866h-27.604
		v-335.39c0,0,55.354,0,84.648,0c72.458,0,95.51,54.096,95.51,86.552c0,24.883-15.857,62.75-53.885,78.979
		c3.085,1.623,6.167,3.246,8.736,5.408c11.308,8.656,20.043,19.475,26.211,31.917c6.68,14.606,10.277,31.917,10.277,51.392
		C439.622,649.942,463.26,679.153,463.26,679.695z M295.728,492.062h56.53c25.695,0,41.7-4.405,54.034-19.551
		c13.36-16.771,14.389-36.244,14.389-41.654c0-5.408-1.028-24.884-13.875-41.652c-12.333-15.147-28.338-15.843-54.033-15.843
		h-57.044V492.062z"/>
	<path d="M487.928,679.695v-335.39h27.604v335.39H487.928z"/>
	<path d="M757.123,654.424v25.271H556.849v-335.39h190.511v25.271H584.968v120.863h152.63v25.271h-152.63v138.713H757.123z"/>
	<path d="M778.268,679.695v-335.39h190.511v25.271H806.388v120.863h152.628v25.271H806.388v163.984H778.268z"/>
</g>
</svg>
